<?xml version="1.0" standalone="no"?>
<!DOCTYPE svg PUBLIC "-//W3C//DTD SVG 20010904//EN"
 "http://www.w3.org/TR/2001/REC-SVG-20010904/DTD/svg10.dtd">
<svg version="1.0" xmlns="http://www.w3.org/2000/svg"
 width="459.000000pt" height="459.000000pt" viewBox="0 0 459.000000 459.000000"
 preserveAspectRatio="xMidYMid meet">
<metadata>
Created by potrace 1.11, written by Peter Selinger 2001-2013
</metadata>
<g transform="translate(0.000000,459.000000) scale(0.100000,-0.100000)"
fill="#000000" stroke="none">
<path d="M0 3784 l0 -807 253 6 c138 3 317 1 397 -3 80 -5 271 -14 425 -20
197 -9 287 -16 305 -25 23 -13 21 -14 -25 -9 -248 22 -802 40 -1095 34 l-265
-6 367 -2 c209 -1 444 -8 545 -16 98 -8 237 -17 308 -21 72 -3 145 -11 163
-17 33 -10 33 -10 15 -30 -17 -20 -17 -21 4 -35 21 -14 22 -16 6 -54 -8 -21
-13 -46 -10 -54 4 -8 2 -17 -4 -21 -6 -3 -8 -12 -5 -19 2 -7 -7 -29 -20 -48
-21 -32 -23 -41 -15 -79 5 -23 7 -46 5 -50 -3 -5 0 -15 6 -24 8 -9 11 -30 7
-57 -7 -53 4 -102 24 -102 16 0 48 -51 49 -77 0 -9 7 -21 16 -26 14 -8 15 -14
4 -46 -7 -21 -10 -53 -8 -72 3 -29 1 -34 -17 -34 -51 2 -267 30 -330 44 -105
23 -185 34 -179 24 3 -4 14 -8 25 -8 36 0 149 -24 149 -32 0 -5 13 -8 28 -8
15 0 32 -4 37 -8 18 -15 91 -32 141 -32 27 0 67 -5 89 -12 22 -6 47 -11 56 -9
9 1 26 -11 38 -26 64 -86 86 -101 93 -65 3 13 8 9 21 -15 10 -18 22 -33 27
-33 5 0 16 -13 25 -30 9 -16 22 -30 29 -30 7 0 19 14 26 30 7 17 16 30 20 30
11 0 60 -59 60 -71 0 -5 7 -9 15 -9 8 0 15 -4 15 -9 0 -18 70 -24 188 -17 67
5 82 3 82 -9 0 -9 6 -12 15 -9 8 4 22 1 30 -6 8 -6 19 -9 25 -5 6 3 10 -3 10
-15 0 -11 4 -28 9 -38 15 -28 41 -90 41 -97 0 -4 -9 -20 -20 -35 -21 -29 -25
-84 -7 -107 5 -7 6 -17 2 -23 -3 -5 -1 -10 4 -10 19 0 12 -40 -6 -41 -15 0
-15 -2 2 -9 11 -5 15 -9 9 -9 -14 -1 -18 -107 -4 -116 5 -3 7 -19 3 -35 -5
-25 -2 -31 21 -40 15 -5 41 -10 57 -10 25 0 29 -4 30 -27 1 -16 0 -32 -1 -38
-2 -5 -5 -22 -8 -38 -2 -15 -9 -27 -14 -27 -5 0 -3 -6 4 -13 26 -27 188 -57
313 -59 l120 -3 88 54 c48 30 91 59 95 65 10 15 67 46 84 46 8 0 41 -27 74
-60 73 -72 95 -81 202 -86 73 -3 90 0 135 22 64 30 78 31 144 11 29 -9 55 -12
58 -7 3 4 -1 11 -7 13 -7 3 -3 6 10 6 13 1 20 -3 17 -9 -3 -5 1 -10 9 -10 9 0
15 -6 13 -13 -1 -6 4 -12 11 -11 47 4 48 4 32 14 -13 8 -13 10 1 10 10 0 15 8
14 22 -2 23 25 78 38 78 4 0 7 -13 7 -30 0 -31 14 -41 23 -16 3 8 4 26 1 40
-2 14 0 26 6 26 5 0 10 13 10 29 0 20 6 30 20 34 13 3 20 0 20 -10 0 -9 -6
-13 -15 -9 -11 4 -15 -2 -15 -24 0 -17 2 -30 5 -30 12 0 55 57 55 74 0 11 6
27 14 35 7 9 19 44 26 79 8 39 18 62 26 62 17 0 17 5 4 29 -7 14 -3 23 16 40
19 16 24 29 20 46 -4 14 0 27 9 35 8 7 15 21 15 31 0 9 7 24 15 33 8 8 15 26
15 40 0 25 30 85 59 119 9 11 14 30 13 44 -3 18 2 26 18 30 15 4 20 11 17 24
-3 12 2 19 18 23 17 4 27 19 40 61 16 49 21 55 45 55 21 0 33 -8 49 -35 11
-19 25 -35 30 -35 18 0 22 19 9 39 -7 11 -10 22 -8 25 3 2 43 6 90 7 82 3 172
18 184 30 3 3 -74 4 -173 1 l-179 -5 -27 25 -26 25 37 71 c24 46 44 72 58 76
41 10 146 194 117 204 -16 5 -13 48 4 62 8 7 13 16 10 20 -3 4 7 29 20 54 14
26 21 44 15 41 -5 -3 -10 -2 -10 4 0 5 4 13 10 16 6 3 10 13 10 22 0 11 -6 14
-21 10 -15 -4 -23 0 -26 13 -7 25 -79 63 -105 54 -15 -4 -19 -2 -16 7 3 8 -6
19 -21 26 -23 10 -23 12 -6 13 11 1 29 3 40 4 11 1 82 3 158 4 123 2 137 4
137 20 0 14 -11 17 -78 20 -42 1 -88 4 -102 7 -14 3 -56 8 -93 12 -73 6 -102
23 -40 22 104 -2 123 2 123 27 0 15 6 24 15 24 8 0 15 5 15 10 0 6 -7 10 -15
10 -8 0 -15 -4 -15 -10 0 -5 -7 -10 -16 -10 -8 0 -12 5 -9 10 3 6 1 10 -4 10
-6 0 -11 -7 -11 -15 0 -8 -7 -15 -15 -15 -9 0 -12 6 -9 15 8 19 -31 34 -73 28
-39 -6 -83 3 -83 17 0 6 12 10 26 10 15 0 38 12 55 29 28 28 31 29 171 36 79
4 146 9 150 12 5 2 8 355 8 784 l0 779 -2295 0 -2295 0 0 -806z m2658 164 c24
-1 45 -5 48 -10 3 -4 17 -8 32 -8 24 0 68 -18 111 -44 11 -7 11 -10 0 -18 -10
-7 -5 -8 14 -4 15 4 27 2 27 -2 0 -5 21 -17 48 -27 26 -10 61 -26 79 -37 33
-19 73 -84 66 -105 -6 -16 17 -40 43 -45 31 -6 26 -45 -7 -60 -16 -7 -27 -18
-25 -24 5 -14 -4 -26 -29 -40 -11 -6 -21 -21 -23 -33 -4 -27 -22 -28 -22 -1 0
14 -7 20 -23 20 -13 0 -27 3 -31 7 -4 4 -18 9 -33 11 -14 1 -44 10 -67 18 -61
22 -154 34 -212 28 -49 -6 -52 -9 -83 -60 -18 -30 -37 -54 -42 -54 -19 0 -88
-54 -98 -77 -6 -13 -13 -52 -17 -88 -6 -60 -9 -65 -31 -65 -13 0 -26 -7 -29
-15 -4 -8 -12 -15 -20 -15 -10 0 -13 -7 -8 -24 4 -17 -1 -28 -20 -44 -14 -11
-26 -23 -26 -27 0 -18 -30 -30 -80 -33 -30 -1 -65 -7 -77 -14 -26 -13 -53 -65
-53 -102 0 -23 4 -26 36 -26 19 0 44 5 55 11 17 8 23 7 34 -8 12 -16 11 -18
-17 -23 -34 -5 -51 -30 -22 -30 16 0 16 -1 -2 -14 -31 -23 -6 -38 33 -19 27
13 41 13 90 3 78 -15 107 -14 180 5 62 17 103 45 103 69 0 22 -30 89 -55 121
-15 20 -24 49 -27 87 -5 57 -5 57 22 52 25 -6 26 -5 27 55 4 132 78 187 255
190 49 1 60 -3 87 -28 37 -34 34 -65 -4 -51 -13 5 -56 8 -97 7 -58 -2 -80 -7
-105 -25 -17 -12 -36 -22 -41 -22 -6 0 -14 -9 -17 -20 -3 -11 -11 -20 -16 -20
-14 0 -11 -40 4 -45 6 -2 36 -6 64 -8 29 -1 58 -8 65 -15 7 -7 21 -12 33 -12
20 -1 20 -1 1 -15 -16 -12 -17 -15 -4 -15 8 0 21 -6 27 -14 15 -18 67 -28 168
-30 85 -3 133 -21 133 -51 0 -9 9 -15 21 -15 l20 0 -20 -26 c-12 -15 -21 -32
-21 -39 0 -11 -18 -23 -114 -75 -21 -12 -40 -30 -43 -40 -3 -10 -10 -17 -17
-14 -7 3 -17 -11 -25 -31 -14 -41 -43 -59 -77 -51 -17 5 -26 2 -30 -8 -5 -13
-11 -12 -42 4 -51 28 -61 25 -80 -18 l-17 -39 -55 18 c-30 10 -62 19 -70 19
-8 0 -28 7 -44 15 -32 17 -76 20 -76 5 0 -15 -41 -12 -60 5 -23 20 -115 32
-133 16 -8 -6 -29 -9 -48 -7 -24 3 -48 -4 -79 -21 -56 -32 -72 -49 -99 -102
-12 -22 -26 -41 -32 -41 -14 0 -2 69 16 90 7 8 16 26 20 40 4 14 15 30 24 37
10 8 12 12 4 13 -7 0 -22 -9 -33 -20 -11 -11 -24 -20 -30 -20 -17 0 -85 -104
-103 -157 -20 -59 -15 -81 20 -89 19 -5 28 -2 35 11 8 13 18 15 43 11 24 -5
44 -1 69 14 20 11 46 20 57 20 23 0 49 -22 49 -42 0 -20 -41 -54 -84 -68 -20
-6 -36 -15 -36 -20 0 -14 127 -70 159 -70 20 0 34 -7 41 -20 7 -14 21 -20 43
-20 25 0 39 -7 56 -30 26 -36 16 -44 -48 -36 -22 3 -41 1 -41 -5 0 -5 -8 -9
-19 -9 -13 0 -20 -10 -25 -31 -5 -26 -10 -30 -33 -28 -16 2 -45 -3 -66 -10
-32 -11 -41 -11 -62 3 -13 9 -38 16 -55 16 -21 0 -30 5 -30 16 0 13 -8 15 -34
12 -19 -2 -32 0 -30 4 8 13 -26 22 -38 10 -12 -12 -21 -152 -10 -152 5 0 14
-17 20 -37 12 -39 3 -57 -25 -46 -7 3 -13 0 -13 -7 0 -8 -10 -9 -29 -5 -23 5
-29 2 -34 -14 -8 -31 -25 -25 -32 12 -3 17 -10 41 -15 52 -11 26 -28 116 -36
188 -4 32 -11 60 -16 63 -5 4 -22 -5 -36 -18 -15 -14 -35 -28 -44 -31 -10 -4
-18 -14 -18 -22 0 -9 -4 -13 -10 -10 -22 13 -10 66 19 91 38 32 71 101 71 149
0 21 3 35 7 31 13 -13 30 111 22 161 -5 26 -13 75 -18 107 -12 73 -4 116 42
224 20 46 39 96 42 112 4 17 11 30 16 30 5 0 9 9 9 21 0 55 57 196 78 192 6
-2 9 4 6 12 -4 8 -1 15 5 15 14 0 14 -31 0 -67 -6 -15 -12 -43 -13 -61 -2 -31
0 -33 25 -28 15 3 39 16 54 30 15 14 31 23 36 20 5 -3 9 -1 9 5 0 5 -6 11 -12
14 -16 5 0 58 20 65 7 2 10 -2 7 -10 -3 -7 -1 -26 3 -43 8 -27 12 -30 46 -27
24 2 36 0 32 -6 -3 -6 -1 -12 5 -14 8 -3 6 -10 -5 -21 -16 -16 -16 -17 10 -17
41 0 112 39 118 66 4 15 11 21 21 18 30 -12 9 46 -29 78 -23 19 -41 24 -31 8
9 -15 -7 -12 -31 5 -39 27 -102 35 -153 19 -28 -8 -47 -10 -49 -4 -2 6 -17 10
-34 10 l-30 0 29 28 c61 60 99 82 129 76 16 -3 49 1 73 10 25 8 48 13 53 10
11 -7 58 26 58 42 0 7 -5 16 -11 20 -18 11 -192 11 -217 1 -27 -12 -43 0 -22
16 9 7 14 20 12 30 -2 10 3 17 12 17 9 0 16 5 16 11 0 6 35 45 78 87 72 71
146 117 257 162 82 34 194 51 285 44 30 -3 74 -5 98 -6z m36 -674 c10 -25 7
-62 -3 -46 -4 8 -11 13 -15 13 -29 -4 -36 15 -14 37 16 16 25 15 32 -4z m1441
-334 c3 -5 2 -10 -4 -10 -5 0 -13 5 -16 10 -3 6 -2 10 4 10 5 0 13 -4 16 -10z
m-1861 -297 c4 -9 1 -22 -5 -29 -16 -19 -75 -18 -83 1 -3 8 -1 15 4 15 6 0 10
6 10 14 0 28 64 27 74 -1z m-114 -3 c0 -19 -4 -20 -37 -14 -46 8 -55 13 -48
25 4 5 24 9 46 9 33 0 39 -3 39 -20z m36 -95 c4 -8 4 -21 1 -29 -7 -18 -47 -9
-47 11 0 8 -4 11 -10 8 -5 -3 -10 -2 -10 4 0 22 58 28 66 6z"/>
<path d="M2057 2894 c-8 -8 1 -24 14 -24 5 0 9 7 9 15 0 15 -12 20 -23 9z"/>
<path d="M2028 2503 c7 -3 16 -2 19 1 4 3 -2 6 -13 5 -11 0 -14 -3 -6 -6z"/>
<path d="M2115 2350 c3 -5 11 -10 16 -10 6 0 7 5 4 10 -3 6 -11 10 -16 10 -6
0 -7 -4 -4 -10z"/>
<path d="M4440 2895 c0 -8 -5 -15 -12 -15 -9 0 -9 -3 0 -12 10 -10 15 -10 22
2 13 20 13 40 0 40 -5 0 -10 -7 -10 -15z"/>
<path d="M4455 2840 c3 -5 8 -10 11 -10 2 0 4 5 4 10 0 6 -5 10 -11 10 -5 0
-7 -4 -4 -10z"/>
<path d="M20 2290 c24 -8 218 -14 209 -6 -2 2 -56 6 -119 9 -65 3 -104 2 -90
-3z"/>
<path d="M388 2253 c7 -3 16 -2 19 1 4 3 -2 6 -13 5 -11 0 -14 -3 -6 -6z"/>
<path d="M673 2203 c9 -2 23 -2 30 0 6 3 -1 5 -18 5 -16 0 -22 -2 -12 -5z"/>
<path d="M788 2173 c6 -2 18 -2 25 0 6 3 1 5 -13 5 -14 0 -19 -2 -12 -5z"/>
<path d="M848 2163 c7 -3 16 -2 19 1 4 3 -2 6 -13 5 -11 0 -14 -3 -6 -6z"/>
<path d="M4383 2043 c15 -2 39 -2 55 0 15 2 2 4 -28 4 -30 0 -43 -2 -27 -4z"/>
<path d="M1147 1666 c-43 -65 -63 -268 -31 -314 21 -30 30 -28 38 8 5 26 10
30 40 30 19 0 38 -4 41 -10 12 -19 43 -11 47 12 5 36 81 70 152 69 51 -2 57 0
47 13 -7 8 -10 31 -7 55 4 39 3 41 -22 40 -15 -1 -36 -5 -47 -9 -81 -31 -103
-33 -142 -13 -28 15 -41 30 -51 59 -7 21 -18 42 -25 46 -8 5 -6 9 6 14 9 3 14
10 11 15 -10 17 -42 9 -57 -15z"/>
<path d="M2168 1413 c7 -3 16 -2 19 1 4 3 -2 6 -13 5 -11 0 -14 -3 -6 -6z"/>
<path d="M320 1377 c-24 -18 -63 -77 -52 -77 12 0 72 67 72 80 0 12 -1 12 -20
-3z"/>
<path d="M1320 1332 c0 -11 7 -25 15 -32 8 -7 15 -18 15 -24 0 -10 63 -66 74
-66 10 0 6 51 -6 73 -12 24 -47 57 -59 57 -4 0 -14 3 -23 6 -11 4 -16 0 -16
-14z"/>
<path d="M3720 1010 c0 -5 9 -10 20 -10 11 0 20 -4 20 -10 0 -5 10 -10 21 -10
21 0 21 1 -4 20 -27 21 -57 27 -57 10z"/>
<path d="M4534 984 c-46 -25 -123 -74 -209 -136 -22 -15 -72 -50 -112 -76 -52
-34 -72 -53 -73 -68 0 -12 -11 -42 -25 -65 -14 -24 -25 -48 -25 -52 0 -12 41
2 73 25 37 26 47 15 40 -45 -5 -45 -9 -50 -72 -94 -86 -61 -131 -107 -131
-133 0 -13 -7 -20 -20 -20 -11 0 -20 -4 -20 -8 0 -5 -12 -22 -26 -38 -53 -60
-104 -148 -98 -168 5 -15 3 -18 -10 -13 -15 6 -44 -28 -33 -39 10 -10 57 39
57 59 0 15 10 27 32 36 35 16 118 99 118 118 0 21 42 63 62 63 10 0 18 -4 18
-10 0 -5 -4 -10 -8 -10 -4 0 -14 -17 -21 -37 -8 -21 -23 -51 -34 -67 -14 -20
-20 -42 -18 -73 1 -30 -2 -43 -11 -43 -8 0 -18 -20 -24 -45 l-10 -45 318 0
318 0 0 505 c0 278 -2 505 -4 505 -1 0 -25 -12 -52 -26z"/>
<path d="M3735 960 c3 -5 10 -10 16 -10 5 0 9 5 9 10 0 6 -7 10 -16 10 -8 0
-12 -4 -9 -10z"/>
<path d="M3490 591 c0 -5 5 -13 10 -16 6 -3 10 -2 10 4 0 5 -4 13 -10 16 -5 3
-10 2 -10 -4z"/>
<path d="M3882 488 c-6 -14 -16 -29 -21 -33 -13 -7 -15 -25 -3 -25 4 0 23 14
42 32 19 17 27 29 18 25 -11 -4 -18 0 -21 11 -3 13 -6 11 -15 -10z"/>
<path d="M3502 429 c-47 -10 -65 -29 -26 -27 16 1 41 -2 57 -6 21 -6 27 -5 27
7 0 24 -23 34 -58 26z"/>
<path d="M2746 423 c-10 -10 -7 -63 4 -63 23 0 7 -29 -21 -39 -23 -8 -30 -15
-25 -27 3 -8 6 -18 6 -20 0 -2 7 -4 16 -4 10 0 14 6 10 15 -4 10 1 15 15 15
11 0 22 6 25 14 3 8 13 12 26 8 16 -4 13 3 -15 30 -26 26 -32 39 -26 51 9 16
-3 32 -15 20z"/>
<path d="M3438 384 c-12 -11 -9 -62 3 -69 17 -11 22 2 13 40 -5 20 -12 33 -16
29z"/>
<path d="M2030 246 c0 -14 5 -26 10 -26 6 0 10 -7 10 -16 0 -8 4 -13 9 -10 5
3 7 16 4 27 -5 19 -3 21 20 15 21 -5 25 -3 21 9 -4 8 -11 15 -18 15 -6 0 -21
3 -33 6 -20 5 -23 2 -23 -20z"/>
<path d="M2684 254 c3 -9 6 -20 6 -25 0 -5 4 -9 9 -9 4 0 6 11 3 25 -2 14 -9
25 -14 25 -6 0 -7 -7 -4 -16z"/>
<path d="M1925 250 c-3 -5 -2 -10 4 -10 5 0 13 5 16 10 3 6 2 10 -4 10 -5 0
-13 -4 -16 -10z"/>
<path d="M2830 230 c-13 -8 -12 -10 3 -10 9 0 17 5 17 10 0 12 -1 12 -20 0z"/>
<path d="M2770 226 c0 -2 7 -6 15 -10 8 -3 15 -1 15 4 0 6 -7 10 -15 10 -8 0
-15 -2 -15 -4z"/>
<path d="M2630 201 c0 -11 5 -23 10 -26 6 -4 10 5 10 19 0 14 -4 26 -10 26 -5
0 -10 -9 -10 -19z"/>
<path d="M3560 25 c0 -16 6 -25 15 -25 8 0 15 5 15 10 0 6 10 10 23 10 21 1
22 1 3 15 -31 24 -56 19 -56 -10z"/>
<path d="M3757 24 c-10 -13 -13 -24 -7 -24 5 0 10 5 10 10 0 6 9 10 20 10 22
0 27 15 7 23 -6 2 -20 -6 -30 -19z"/>
</g>
</svg>
